<?xml version="1.0" encoding="UTF-8" standalone="no" ?>
<!DOCTYPE svg PUBLIC "-//W3C//DTD SVG 1.1//EN" "http://www.w3.org/Graphics/SVG/1.1/DTD/svg11.dtd">
<svg xmlns="http://www.w3.org/2000/svg" xmlns:xlink="http://www.w3.org/1999/xlink" version="1.1" width="1280" height="1024" viewBox="0 0 1280 1024" xml:space="preserve">
<desc>Created with Fabric.js 5.3.0</desc>
<defs>
</defs>
<g transform="matrix(1 0 0 1 640 512)" id="background-logo"  >
<rect style="stroke: none; stroke-width: 0; stroke-dasharray: none; stroke-linecap: butt; stroke-dashoffset: 0; stroke-linejoin: miter; stroke-miterlimit: 4; fill: rgb(255,255,255); fill-opacity: 0; fill-rule: nonzero; opacity: 1;"  paint-order="stroke"  x="-640" y="-512" rx="0" ry="0" width="1280" height="1024" />
</g>
<g transform="matrix(1.3745515704859494 0 0 1.3745515704859494 217.29812499999997 512)" id="logo-logo"  >
<g style=""  paint-order="stroke"   >
		<g transform="matrix(0.8630861617712594 0 0 0.8630861617712594 -5.684342e-14 43.32692532091721)"  >
<g style=""  paint-order="stroke"   >
		<g transform="matrix(1 0 0 1 -57.150000000000006 0)"  >
<polygon style="stroke: none; stroke-width: 1; stroke-dasharray: none; stroke-linecap: butt; stroke-dashoffset: 0; stroke-linejoin: miter; stroke-miterlimit: 4; fill: rgb(0,0,0); fill-rule: nonzero; opacity: 1;"  paint-order="stroke"  points="-3.6499999999999915,18.400000000000006 3.6500000000000057,7.900000000000006 3.6500000000000057,-18.399999999999977 -3.6499999999999915,-18.399999999999977 " />
</g>
		<g transform="matrix(1 0 0 1 57.19999999999999 0)"  >
<polygon style="stroke: none; stroke-width: 1; stroke-dasharray: none; stroke-linecap: butt; stroke-dashoffset: 0; stroke-linejoin: miter; stroke-miterlimit: 4; fill: rgb(0,0,0); fill-rule: nonzero; opacity: 1;"  paint-order="stroke"  points="-3.5999999999999943,-18.399999999999977 -3.5999999999999943,7.900000000000006 3.6000000000000227,18.400000000000006 3.6000000000000227,-18.399999999999977 " />
</g>
</g>
</g>
		<g transform="matrix(0.8630861617712594 0 0 0.8630861617712594 0.08630861617706387 32.71096553113074)"  >
<path style="stroke: none; stroke-width: 1; stroke-dasharray: none; stroke-linecap: butt; stroke-dashoffset: 0; stroke-linejoin: miter; stroke-miterlimit: 4; fill: rgb(0,0,0); fill-rule: nonzero; opacity: 1;"  paint-order="stroke"  transform=" translate(-162.1, -167.90000000000003)" d="M 167.3 162.8 C 167.3 162.9 167.4 163 167.4 163.10000000000002 C 167.4 164.20000000000002 166.5 165.00000000000003 165.5 165.00000000000003 C 164.4 165.00000000000003 163.6 164.10000000000002 163.6 163.10000000000002 C 163.6 162.20000000000002 164.29999999999998 161.40000000000003 165.2 161.3 C 164.29999999999998 160.9 163.2 160.60000000000002 162.1 160.60000000000002 C 158.1 160.60000000000002 154.79999999999998 163.90000000000003 154.79999999999998 167.90000000000003 C 154.79999999999998 171.90000000000003 158.1 175.20000000000005 162.1 175.20000000000005 C 166.1 175.20000000000005 169.4 171.90000000000003 169.4 167.90000000000003 C 169.3 165.9 168.5 164.1 167.3 162.8 z M 163.4 171.1 C 162 171.1 160.9 170 160.9 168.6 C 160.9 167.2 162 166.1 163.4 166.1 C 164.8 166.1 165.9 167.2 165.9 168.6 C 165.9 170 164.8 171.1 163.4 171.1 z" stroke-linecap="round" />
</g>
		<g transform="matrix(0.8630861617712594 0 0 0.8630861617712594 0 -0.08630861617712071)"  >
<path style="stroke: none; stroke-width: 1; stroke-dasharray: none; stroke-linecap: butt; stroke-dashoffset: 0; stroke-linejoin: miter; stroke-miterlimit: 4; fill: rgb(0,0,0); fill-rule: nonzero; opacity: 1;"  paint-order="stroke"  transform=" translate(-162.00000000000003, -129.89999999999998)" d="M 266 86.8 L 265.8 86.8 L 265.8 81.6 L 259.3 81.6 L 259.3 72.8 L 265.90000000000003 74.5 L 303.6 67 L 269.8 63.7 C 265.6 63.300000000000004 261.40000000000003 64.5 258.2 67.2 L 254.7 61.400000000000006 L 251.1 67.4 L 250.6 67 C 247.5 64.5 243.6 63.2 239.7 63.5 L 185.6 66.4 L 243.2 74.7 L 250.1 73 L 250.1 81.9 L 243.6 81.9 L 243.6 87.10000000000001 L 241.79999999999998 87.10000000000001 C 238.49999999999997 87.10000000000001 235.7 89.80000000000001 235.7 93.2 C 235.7 96.6 233 99.3 229.6 99.3 L 203.5 99.3 C 201 99.3 198.7 100.3 196.9 102 L 190.8 108.1 C 189.10000000000002 109.8 186.70000000000002 110.8 184.20000000000002 110.8 L 175.60000000000002 110.8 C 173.00000000000003 110.8 170.3 111.6 168.50000000000003 113.39999999999999 C 164.90000000000003 117.1 159.00000000000003 117.1 155.30000000000004 113.49999999999999 L 155.30000000000004 113.49999999999999 C 153.60000000000005 111.79999999999998 151.20000000000005 110.79999999999998 148.70000000000005 110.79999999999998 L 139.50000000000006 110.79999999999998 C 137.00000000000006 110.79999999999998 134.70000000000005 109.79999999999998 132.90000000000006 108.09999999999998 L 126.80000000000007 101.99999999999999 C 125.10000000000007 100.29999999999998 122.70000000000007 99.29999999999998 120.20000000000007 99.29999999999998 L 94.4 99.29999999999998 C 91.10000000000001 99.29999999999998 88.30000000000001 96.59999999999998 88.30000000000001 93.19999999999999 C 88.30000000000001 89.8 85.60000000000001 87.1 82.20000000000002 87.1 L 80.40000000000002 87.1 L 80.40000000000002 81.89999999999999 L 73.90000000000002 81.89999999999999 L 73.90000000000002 72.99999999999999 L 80.80000000000003 74.69999999999999 L 138.40000000000003 66.39999999999999 L 84.30000000000004 63.49999999999999 C 80.30000000000004 63.29999999999999 76.50000000000004 64.6 73.40000000000003 67 L 72.90000000000003 67.4 L 69.30000000000004 61.400000000000006 L 65.80000000000004 67.2 C 62.50000000000004 64.60000000000001 58.30000000000004 63.300000000000004 54.20000000000004 63.7 L 20.40000000000004 67 L 58.100000000000044 74.5 L 64.70000000000005 72.8 L 64.70000000000005 81.6 L 58.200000000000045 81.6 L 58.200000000000045 86.8 L 58.00000000000004 86.8 C 54.600000000000044 86.8 51.80000000000004 89.6 51.80000000000004 93 L 51.80000000000004 103.6 C 51.80000000000004 107 54.60000000000004 109.8 58.00000000000004 109.8 L 96.00000000000004 109.8 L 116.70000000000005 116.6 L 88.30000000000004 149.6 L 88.30000000000004 198.39999999999998 L 98.50000000000004 198.39999999999998 L 98.50000000000004 152.89999999999998 L 121.10000000000005 129.7 C 123.60000000000005 127.19999999999999 127.70000000000005 127.49999999999999 129.70000000000005 130.39999999999998 L 132.30000000000004 133.99999999999997 C 133.00000000000003 134.99999999999997 133.40000000000003 136.09999999999997 133.40000000000003 137.29999999999998 L 133.40000000000003 145.2 C 133.40000000000003 149.39999999999998 136.80000000000004 152.89999999999998 141.10000000000002 152.89999999999998 L 153.20000000000002 152.89999999999998 L 153.20000000000002 155.39999999999998 L 152.70000000000002 155.39999999999998 C 150.60000000000002 155.39999999999998 148.8 157.09999999999997 148.8 159.29999999999998 L 148.8 176.1 C 148.8 178.2 150.5 180 152.70000000000002 180 L 171.50000000000003 180 C 173.60000000000002 180 175.40000000000003 178.3 175.40000000000003 176.1 L 175.40000000000003 159.29999999999998 C 175.40000000000003 157.2 173.70000000000005 155.39999999999998 171.50000000000003 155.39999999999998 L 171.00000000000003 155.39999999999998 L 171.00000000000003 152.89999999999998 L 183.10000000000002 152.89999999999998 C 187.3 152.89999999999998 190.8 149.49999999999997 190.8 145.2 L 190.8 137.29999999999998 C 190.8 136.1 191.20000000000002 134.99999999999997 191.8 133.99999999999997 L 194.4 130.39999999999998 C 196.4 127.49999999999997 200.6 127.19999999999997 203 129.7 L 225.6 152.89999999999998 L 225.6 198.39999999999998 L 235.79999999999998 198.39999999999998 L 235.79999999999998 149.59999999999997 L 207.39999999999998 116.59999999999997 L 228.09999999999997 109.79999999999997 L 266.09999999999997 109.79999999999997 C 269.49999999999994 109.79999999999997 272.29999999999995 106.99999999999997 272.29999999999995 103.59999999999997 L 272.29999999999995 93 C 272.2 89.6 269.4 86.8 266 86.8 z M 60.8 98.9 L 55.9 98.9 L 55.9 95.7 L 60.8 95.7 L 60.8 98.9 z M 71.9 98.9 L 67 98.9 L 67 95.7 L 71.9 95.7 L 71.9 98.9 z M 83 98.9 L 78.1 98.9 L 78.1 95.7 L 83 95.7 L 83 98.9 z M 171.5 167.9 C 171.5 173.1 167.3 177.3 162.1 177.3 C 156.9 177.3 152.7 173.10000000000002 152.7 167.9 C 152.7 162.70000000000002 156.89999999999998 158.5 162.1 158.5 C 167.2 158.4 171.5 162.7 171.5 167.9 z M 181.3 146.1 L 142.8 146.1 L 142.8 140.7 L 181.3 140.7 L 181.3 146.1 z M 246 98.9 L 241.1 98.9 L 241.1 95.7 L 246 95.7 L 246 98.9 z M 257.1 98.9 L 252.20000000000002 98.9 L 252.20000000000002 95.7 L 257.1 95.7 L 257.1 98.9 z M 268.2 98.9 L 263.3 98.9 L 263.3 95.7 L 268.2 95.7 L 268.2 98.9 z" stroke-linecap="round" />
</g>
</g>
</g>
<g transform="matrix(1.9211538461538462 0 0 1.9211538461538462 823.1491375047132 512.4753160096616)" id="text-logo"  >
<g style=""  paint-order="stroke"   >
		<g transform="matrix(1 0 0 1 0 0)" id="text-logo-path-0"  >
<path style="stroke: none; stroke-width: 0; stroke-dasharray: none; stroke-linecap: butt; stroke-dashoffset: 0; stroke-linejoin: miter; stroke-miterlimit: 4; fill: rgb(0,0,0); fill-rule: nonzero; opacity: 1;"  paint-order="stroke"  transform=" translate(-202.965, 7.4399999999999995)" d="M 5.11 0 L 5.11 -4.9 L 7.9 -4.9 C 10.7 -4.9 12.24 -6.65 12.24 -8.88 L 12.24 -11.14 C 12.24 -13.61 10.7 -15.05 7.9 -15 L 1.63 -14.88 L 1.63 0 Z M 8.4 -11.98 C 8.62 -11.98 8.71 -11.88 8.71 -11.64 L 8.71 -8.26 C 8.71 -8.02 8.62 -7.92 8.4 -7.92 L 5.11 -7.92 L 5.11 -11.98 Z M 22.49 0 L 22.49 -5.33 L 24.82 -5.33 C 25.1 -5.33 25.1 -5.21 25.2 -4.94 L 26.83 0 L 30.29 0 L 28.85 -4.13 C 28.54 -4.97 28.15 -5.47 27.6 -5.81 C 28.99 -6.48 29.69 -7.82 29.69 -9.34 L 29.69 -11.14 C 29.69 -13.61 28.15 -15.05 25.34 -15 L 19.01 -14.88 L 19.01 0 Z M 25.85 -11.98 C 26.06 -11.98 26.16 -11.88 26.16 -11.64 L 26.16 -8.64 C 26.16 -8.4 26.06 -8.33 25.85 -8.33 L 22.49 -8.33 L 22.49 -11.98 Z M 46.18 0 L 46.18 -3.02 L 40.54 -3.02 L 40.54 -6.05 L 45.6 -6.05 L 45.6 -9.02 L 40.54 -9.02 L 40.54 -11.86 L 46.06 -11.86 L 46.06 -14.88 L 37.06 -14.88 L 37.06 0 Z M 56.16 -9.05 C 55.94 -9.05 55.82 -9.14 55.82 -9.38 L 55.82 -11.52 C 55.82 -11.76 55.94 -11.86 56.16 -11.86 L 62.02 -11.86 L 62.02 -14.88 L 56.64 -15 C 53.83 -15.07 52.3 -13.61 52.3 -11.14 L 52.3 -9.84 C 52.3 -7.37 53.83 -5.9 56.64 -5.9 L 58.73 -5.9 C 58.94 -5.9 59.06 -5.81 59.06 -5.57 L 59.06 -3.36 C 59.06 -3.12 58.94 -3.02 58.73 -3.02 L 52.68 -3.02 L 52.68 0 L 58.22 0.12 C 61.03 0.19 62.57 -1.27 62.57 -3.74 L 62.57 -5.11 C 62.57 -7.58 61.03 -9.05 58.22 -9.05 Z M 74.9 0 L 74.9 -11.86 L 78.29 -11.86 L 78.29 -14.88 L 68.06 -14.88 L 68.06 -11.86 L 71.45 -11.86 L 71.45 0 Z M 88.42 0 L 88.42 -14.88 L 84.94 -14.88 L 84.94 0 Z M 102.7 0.24 C 105.5 0.24 106.92 -1.03 106.92 -3.5 L 106.92 -8.4 L 102 -8.4 L 102 -5.5 L 103.63 -5.5 L 103.63 -3.22 C 103.63 -2.98 103.54 -2.88 103.32 -2.88 L 100.1 -2.88 C 99.89 -2.88 99.77 -2.98 99.77 -3.22 L 99.77 -11.66 C 99.77 -11.9 99.89 -12 100.1 -12 L 106.61 -12 L 106.61 -15.12 L 100.46 -15.12 C 97.66 -15.12 96.26 -13.85 96.26 -11.38 L 96.26 -3.5 C 96.26 -1.03 97.66 0.24 100.46 0.24 Z M 123.38 0 L 123.38 -3.02 L 117.74 -3.02 L 117.74 -6.05 L 122.81 -6.05 L 122.81 -9.02 L 117.74 -9.02 L 117.74 -11.86 L 123.26 -11.86 L 123.26 -14.88 L 114.26 -14.88 L 114.26 0 Z M 135.6 0.24 C 137.42 0.24 138.34 -0.38 138.55 -1.92 C 138.77 -0.38 139.68 0.24 141.5 0.24 L 143.71 0.24 C 145.8 0.24 146.74 -0.58 146.74 -2.69 L 146.69 -14.88 L 143.26 -14.88 L 143.3 -3.22 C 143.3 -3 143.21 -2.88 142.97 -2.88 L 140.52 -2.88 C 140.28 -2.88 140.21 -2.98 140.21 -3.22 L 140.21 -14.88 L 136.92 -14.88 L 136.92 -3.22 C 136.92 -3 136.82 -2.88 136.58 -2.88 L 134.21 -2.88 C 133.97 -2.88 133.87 -2.98 133.87 -3.22 L 133.87 -14.88 L 130.42 -14.88 L 130.42 -2.69 C 130.42 -0.58 131.35 0.24 133.44 0.24 Z M 159.79 0.24 C 161.62 0.24 162.53 -0.38 162.74 -1.92 C 162.96 -0.38 163.87 0.24 165.7 0.24 L 167.9 0.24 C 169.99 0.24 170.93 -0.58 170.93 -2.69 L 170.88 -14.88 L 167.45 -14.88 L 167.5 -3.22 C 167.5 -3 167.4 -2.88 167.16 -2.88 L 164.71 -2.88 C 164.47 -2.88 164.4 -2.98 164.4 -3.22 L 164.4 -14.88 L 161.11 -14.88 L 161.11 -3.22 C 161.11 -3 161.02 -2.88 160.78 -2.88 L 158.4 -2.88 C 158.16 -2.88 158.06 -2.98 158.06 -3.22 L 158.06 -14.88 L 154.61 -14.88 L 154.61 -2.69 C 154.61 -0.58 155.54 0.24 157.63 0.24 Z M 199.8 0 L 196.66 -14.88 L 193.27 -15 C 191.11 -15.07 190.49 -14.4 189.96 -12.19 L 186.91 0 L 190.15 0 L 190.9 -3.31 L 195.7 -3.31 L 196.34 0 Z M 192.79 -11.57 C 192.84 -11.81 192.89 -11.9 193.13 -11.9 L 194.02 -11.9 L 195.12 -6.29 L 191.57 -6.29 Z M 215.33 0 L 215.33 -3.02 L 209.69 -3.02 L 209.69 -6.05 L 214.75 -6.05 L 214.75 -9.02 L 209.69 -9.02 L 209.69 -11.86 L 215.21 -11.86 L 215.21 -14.88 L 206.21 -14.88 L 206.21 0 Z M 225.94 0 L 225.94 -5.33 L 228.26 -5.33 C 228.55 -5.33 228.55 -5.21 228.65 -4.94 L 230.28 0 L 233.74 0 L 232.3 -4.13 C 231.98 -4.97 231.6 -5.47 231.05 -5.81 C 232.44 -6.48 233.14 -7.82 233.14 -9.34 L 233.14 -11.14 C 233.14 -13.61 231.6 -15.05 228.79 -15 L 222.46 -14.88 L 222.46 0 Z M 229.3 -11.98 C 229.51 -11.98 229.61 -11.88 229.61 -11.64 L 229.61 -8.64 C 229.61 -8.4 229.51 -8.33 229.3 -8.33 L 225.94 -8.33 L 225.94 -11.98 Z M 244.22 0 L 244.22 -14.88 L 240.74 -14.88 L 240.74 0 Z M 263.83 0 L 260.69 -14.88 L 257.3 -15 C 255.14 -15.07 254.52 -14.4 253.99 -12.19 L 250.94 0 L 254.18 0 L 254.93 -3.31 L 259.73 -3.31 L 260.38 0 Z M 256.82 -11.57 C 256.87 -11.81 256.92 -11.9 257.16 -11.9 L 258.05 -11.9 L 259.15 -6.29 L 255.6 -6.29 Z M 278.78 -3.02 L 273.72 -3.02 L 273.72 -14.88 L 270.24 -14.88 L 270.24 0 L 278.78 0 Z M 298.39 0 L 298.39 -14.88 L 294.91 -14.88 L 294.91 0 Z M 317.81 -14.88 L 316.78 -14.88 L 313.1 -7.75 L 309.79 -13.92 C 309.41 -14.59 309.17 -14.88 308.09 -14.88 L 306.24 -14.88 L 306.24 0 L 309.29 0 L 309.29 -9.31 L 311.81 -4.25 L 313.87 -4.25 L 316.58 -9.55 L 316.58 0 L 319.92 0 L 319.92 -12.89 C 319.92 -14.3 319.32 -14.88 317.81 -14.88 Z M 339.05 0 L 335.9 -14.88 L 332.52 -15 C 330.36 -15.07 329.74 -14.4 329.21 -12.19 L 326.16 0 L 329.4 0 L 330.14 -3.31 L 334.94 -3.31 L 335.59 0 Z M 332.04 -11.57 C 332.09 -11.81 332.14 -11.9 332.38 -11.9 L 333.26 -11.9 L 334.37 -6.29 L 330.82 -6.29 Z M 351.67 0.24 C 354.48 0.24 355.9 -1.03 355.9 -3.5 L 355.9 -8.4 L 350.98 -8.4 L 350.98 -5.5 L 352.61 -5.5 L 352.61 -3.22 C 352.61 -2.98 352.51 -2.88 352.3 -2.88 L 349.08 -2.88 C 348.86 -2.88 348.74 -2.98 348.74 -3.22 L 348.74 -11.66 C 348.74 -11.9 348.86 -12 349.08 -12 L 355.58 -12 L 355.58 -15.12 L 349.44 -15.12 C 346.63 -15.12 345.24 -13.85 345.24 -11.38 L 345.24 -3.5 C 345.24 -1.03 346.63 0.24 349.44 0.24 Z M 366.96 0 L 366.96 -14.88 L 363.48 -14.88 L 363.48 0 Z M 383.83 0 L 386.28 0 L 386.28 -14.88 L 383.3 -14.88 L 383.3 -5.95 L 377.23 -14.88 L 374.81 -14.88 L 374.81 0 L 377.78 0 L 377.78 -8.93 Z M 400.08 0.24 C 402.89 0.24 404.3 -1.03 404.3 -3.5 L 404.3 -8.4 L 399.38 -8.4 L 399.38 -5.5 L 401.02 -5.5 L 401.02 -3.22 C 401.02 -2.98 400.92 -2.88 400.7 -2.88 L 397.49 -2.88 C 397.27 -2.88 397.15 -2.98 397.15 -3.22 L 397.15 -11.66 C 397.15 -11.9 397.27 -12 397.49 -12 L 403.99 -12 L 403.99 -15.12 L 397.85 -15.12 C 395.04 -15.12 393.65 -13.85 393.65 -11.38 L 393.65 -3.5 C 393.65 -1.03 395.04 0.24 397.85 0.24 Z" stroke-linecap="round" />
</g>
</g>
</g>
</svg>